<svg id="e9YbGJ1FxIL1" xmlns="http://www.w3.org/2000/svg" xmlns:xlink="http://www.w3.org/1999/xlink" viewBox="0 0 180 90" shape-rendering="geometricPrecision" text-rendering="geometricPrecision"><path d="M20,5h140v0c0,0,0,0,0,0c3.86599,0,7,3.13401,7,7s-3.13401,7-7,7c-.00062,0-.00124,0-.00186,0h-139.99628c-.00062,0-.00124,0-.00186,0-3.86599,0-7-3.13401-7-7s3.13401-7,7-7ZM45,38h90v0c0,0,0,0,0,0c3.86599,0,7,3.13401,7,7s-3.13401,7-7,7c-.00062,0-.00124,0-.00186,0h-89.99628c-.00062,0-.00124,0-.00186,0-3.86599,0-7-3.13401-7-7s3.13401-7,7-7ZM65,71h50v0c3.86599,0,7,3.13401,7,7s-3.13401,7-7,7c-.00141,0-.00281,0-.00422,0h-49.99392c-.00062,0-.00124,0-.00186,0-3.86599,0-7-3.13401-7-7s3.13401-7,7-7Z" fill="#8c8c8f" stroke-width="0"/></svg>
