<svg id="eiUgm7O3PEz1" xmlns="http://www.w3.org/2000/svg" xmlns:xlink="http://www.w3.org/1999/xlink" viewBox="0 0 450 450" shape-rendering="geometricPrecision" text-rendering="geometricPrecision"><g transform="matrix(.1 0 0-.1-88.870459 664.000196)"><path d="M2063,5814c-68-34-96-130-59-201c31-62,51-67,246-73l175-5l5-1535l5-1535l32-68c38-80,122-173,191-210c88-48,154-57,420-57h242v-108c0-101,2-113,31-170c32-65,66-99,133-135l41-22l813-3l813-2l60,26c67,30,121,84,153,153c20,44,21,59,21,411v365l-28,57c-16,32-48,75-73,97-85,75-43,72-950,69l-809-3-41-22c-67-36-101-70-133-135-29-57-31-69-31-170v-108h-241c-271,0-291,4-331,69l-23,36v685v685h295h295l5-115c4-93,9-124,28-162c28-56,88-112,151-142c46-21,50-21,851-21h805l56,26c66,31,119,83,151,147c23,47,23,50,23,417c0,357-1,372-21,416-28,60-93,125-153,153-46,21-48,21-851,21-909,0-858,4-948-79-71-65-85-102-91-241l-6-120h-295-295v665v665l175,5c146,4,181,8,203,23c64,42,82,116,45,187-42,82-26,80-573,80-419,0-484-2-512-16ZM5090,4055v-295h-740-740v295v295h740h740v-295Zm0-1775v-300l-737,2-738,3-3,285c-1,157,0,290,3,297c3,10,157,13,740,13h735v-300Z" transform="translate(-547.58252 629.999755)" fill="#a3a3a8"/></g></svg>
